Coordinates
version=1
nRows=8
nColumns=40
inDegrees=yes

Units are S.I. units (second, meters, Newtons, ...)
If the header above contains a line with 'inDegrees', this indicates whether rotational values are in degrees (yes) or radians (no).

endheader
time	pelvis_tilt	pelvis_list	pelvis_rotation	pelvis_tx	pelvis_ty	pelvis_tz	hip_flexion_r	hip_adduction_r	hip_rotation_r	knee_angle_r	knee_angle_r_beta	ankle_angle_r	subtalar_angle_r	mtp_angle_r	hip_flexion_l	hip_adduction_l	hip_rotation_l	knee_angle_l	knee_angle_l_beta	ankle_angle_l	subtalar_angle_l	mtp_angle_l	lumbar_extension	lumbar_bending	lumbar_rotation	arm_flex_r	arm_add_r	arm_rot_r	elbow_flex_r	pro_sup_r	wrist_flex_r	wrist_dev_r	arm_flex_l	arm_add_l	arm_rot_l	elbow_flex_l	pro_sup_l	wrist_flex_l	wrist_dev_l
      2.76000000	      8.95590359	     -0.26138946	     -3.55541822	      0.06840392	      0.87805516	     -0.33149635	     17.52565847	     -0.25368372	      0.47925574	     10.98764969	      0.19177066	      2.16640414	      0.00000000	      0.00000000	    -23.42316825	      4.75018606	     -9.85962788	     13.91265421	      0.24282162	     11.79009589	      0.00000000	      0.00000000	    -22.87800795	      3.76356302	      5.37792066	      0.00000000	    -10.39008731	      0.00000000	     74.60074108	     45.14889776	      0.00000000	      0.00000000	      0.00000000	    -10.39008731	      0.00000000	     74.60074108	     45.14889776	      0.00000000	      0.00000000
      2.76666667	      9.02025060	     -0.41795021	     -3.49978636	      0.07795459	      0.87752837	     -0.33097123	     17.54208771	      0.02889925	      0.23684901	     12.11887220	      0.21151422	      2.17468308	      0.00000000	      0.00000000	    -23.62774536	      4.35594721	    -10.16827333	     14.96664309	      0.26121720	     11.37009311	      0.00000000	      0.00000000	    -22.85772431	      4.01986015	      5.36100706	      0.00000000	    -10.40000241	      0.00000000	     74.60241982	     45.14716653	      0.00000000	      0.00000000	      0.00000000	    -10.40000241	      0.00000000	     74.60241982	     45.14716653	      0.00000000	      0.00000000
      2.77333333	      9.14061717	     -0.55919855	     -3.46326901	      0.08747883	      0.87709607	     -0.33039074	     17.46238287	      0.31122241	      0.22795549	     13.24178491	      0.23111275	      2.12699280	      0.00000000	      0.00000000	    -23.83538564	      3.98023002	    -10.43570758	     16.10309172	      0.28105197	     11.03372776	      0.00000000	      0.00000000	    -22.98926684	      4.27207253	      5.34456565	      0.00000000	    -10.40494612	      0.00000000	     74.60325557	     45.14630930	      0.00000000	      0.00000000	      0.00000000	    -10.40494612	      0.00000000	     74.60325557	     45.14630930	      0.00000000	      0.00000000
      2.78000000	      8.95152237	     -0.71176865	     -3.40859633	      0.09725704	      0.87635455	     -0.32969315	     17.76464299	      0.60177276	      0.05533665	     14.51227887	      0.25328705	      1.91931752	      0.00000000	      0.00000000	    -23.54745535	      3.47485136	    -10.94041358	     17.57387831	      0.30672204	      9.12407323	      0.00000000	      0.00000000	    -22.52399892	      4.47923815	      5.34277777	      0.00000000	    -10.43654478	      0.00000000	     74.60857672	     45.14092927	      0.00000000	      0.00000000	      0.00000000	    -10.43654478	      0.00000000	     74.60857672	     45.14092927	      0.00000000	      0.00000000
      2.78666667	      9.01215883	     -0.90735151	     -3.38405920	      0.10696615	      0.87589867	     -0.32903599	     17.70600843	      0.92386514	      0.04382682	     15.60622413	      0.27237999	      1.73364928	      0.00000000	      0.00000000	    -23.50616376	      2.94770107	    -11.46080738	     19.06830400	      0.33280469	      8.48397694	      0.00000000	      0.00000000	    -22.48775282	      4.85036656	      5.36493958	      0.00000000	    -10.44733770	      0.00000000	     74.61038641	     45.13912800	      0.00000000	      0.00000000	      0.00000000	    -10.44733770	      0.00000000	     74.61038641	     45.13912800	      0.00000000	      0.00000000
      2.79333333	      8.96360900	     -1.14678413	     -3.35348941	      0.11674560	      0.87542658	     -0.32818438	     17.72336120	      1.32949366	      0.16518583	     16.62363804	      0.29013722	      1.41417574	      0.00000000	      0.00000000	    -23.27105482	      2.31785107	    -11.94320511	     20.68503753	      0.36102201	      7.44178239	      0.00000000	      0.00000000	    -22.28529317	      5.13623561	      5.41398974	      0.00000000	    -10.45972114	      0.00000000	     74.61245768	     45.13708486	      0.00000000	      0.00000000	      0.00000000	    -10.45972114	      0.00000000	     74.61245768	     45.13708486	      0.00000000	      0.00000000
      2.80000000	      8.92562528	     -1.40455920	     -3.31791562	      0.12650396	      0.87500729	     -0.32733139	     17.68958413	      1.74888935	      0.38256806	     17.55782914	      0.30644193	      1.00320572	      0.00000000	      0.00000000	    -22.95991043	      1.62985592	    -12.45056548	     22.43387166	      0.39154492	      6.08418804	      0.00000000	      0.00000000	    -22.12272730	      5.46205207	      5.47725476	      0.00000000	    -10.47310423	      0.00000000	     74.61469030	     45.13490353	      0.00000000	      0.00000000	      0.00000000	    -10.47310423	      0.00000000	     74.61469030	     45.13490353	      0.00000000	      0.00000000
      2.80666667	      9.12497263	     -1.56549549	     -3.30323647	      0.13610800	      0.87487502	     -0.32646274	     17.36207316	      2.05153682	      0.77514256	     18.40238796	      0.32118226	      0.81066661	      0.00000000	      0.00000000	    -22.86573532	      1.08618750	    -12.79561440	     24.15581777	      0.42159855	      5.44747597	      0.00000000	      0.00000000	    -22.38515668	      5.59214450	      5.50525017	      0.00000000	    -10.47780533	      0.00000000	     74.61547300	     45.13414423	      0.00000000	      0.00000000	      0.00000000	    -10.47780533	      0.00000000	     74.61547300	     45.13414423	      0.00000000	      0.00000000
